# xmcd
#
# Track frame offsets: 
#        150
#        7090
#        23060
#        41370
#        63985
#        71110
#        83063
#        104073
#        124063
#        144088
#        148235
#        167975
#        194510
#        215200
#        220283
#        239633
#        259278
#        282008
#
# Disc length: 3840 seconds
#
# Revision: 0
# Processed by: cddbd v1.5.1PL0 Copyright (c) Steve Scherf et al.
# Submitted via: ExactAudioCopy v0.90b4
#
DISCID=200efe12
DTITLE=Various Artist - Brothers and Sisters - Live From Philly - Disc 
DTITLE=1
DYEAR=1993
DGENRE=Soul
TTITLE0=The Great Equalizer I
TTITLE1=The Choir Of Hope - We Can Make The Difference
TTITLE2=E-Tribe - Move Something
TTITLE3=Live - 10,000 Years
TTITLE4=Equalizer II
TTITLE5=Suddenly, Tammy! - Disease
TTITLE6=Papa's Gun - Never Hear It
TTITLE7=Godpocket - Drown
TTITLE8=WNOC feat Grover Washington Jr - AIDS Prevention Tip No 9
TTITLE9=Equalizer III
TTITLE10=Jeffrey Gaines - A Dark Love Song
TTITLE11=Huffamoose - Sacred Ground
TTITLE12=The Low Road - Good Morning Lazarus
TTITLE13=Equalizer IV
TTITLE14=EDO - This Is Your Life Boris Karloff
TTITLE15=The Goats - Tricks Of The Shade
TTITLE16=Red Paint People - Can't Spray
TTITLE17=The Great Equalizer - Conclusion
EXTD=
EXTT0=
EXTT1=
EXTT2=
EXTT3=
EXTT4=
EXTT5=
EXTT6=
EXTT7=
EXTT8=
EXTT9=
EXTT10=
EXTT11=
EXTT12=
EXTT13=
EXTT14=
EXTT15=
EXTT16=
EXTT17=
PLAYORDER=
